# Blender v2.76 (sub 0) OBJ File: 'human-fixed-standstill.blend'
# www.blender.org
v -0.154167 0.000531 0.250000
v -0.154167 0.000531 -0.000000
v 0.195833 0.000531 -0.000000
v 0.195833 0.000531 0.250000
v -0.154167 0.075531 0.250000
v -0.154167 0.075531 -0.000000
v 0.195833 0.075531 -0.000000
v 0.195833 0.075531 0.250000
v -0.154167 0.000531 -0.000000
v -0.154167 0.000531 -0.250000
v 0.195833 0.000531 -0.250000
v 0.195833 0.000531 -0.000000
v -0.154167 0.075531 -0.000000
v -0.154167 0.075531 -0.250000
v 0.195833 0.075531 -0.250000
v 0.195833 0.075531 -0.000000
v -0.154167 0.450531 0.000000
v -0.154167 0.450531 -0.250000
v 0.145833 0.450531 -0.250000
v 0.145833 0.450531 0.000000
v -0.154167 0.825531 0.000000
v -0.154167 0.825531 -0.250000
v 0.145833 0.825531 -0.250000
v 0.145833 0.825531 0.000000
v -0.154167 0.075531 -0.000000
v -0.154167 0.075531 -0.250000
v 0.145833 0.075531 -0.250000
v 0.145833 0.075531 -0.000000
v -0.154167 0.450531 0.000000
v -0.154167 0.450531 -0.250000
v 0.145833 0.450531 -0.250000
v 0.145833 0.450531 0.000000
v -0.154167 0.075531 0.250000
v -0.154167 0.075531 -0.000000
v 0.145833 0.075531 -0.000000
v 0.145833 0.075531 0.250000
v -0.154167 0.450531 0.250000
v -0.154167 0.450531 0.000000
v 0.145833 0.450531 0.000000
v 0.145833 0.450531 0.250000
v -0.154167 0.450531 0.250000
v -0.154167 0.450531 0.000000
v 0.145833 0.450531 0.000000
v 0.145833 0.450531 0.250000
v -0.154167 0.825531 0.250000
v -0.154167 0.825531 0.000000
v 0.145833 0.825531 0.000000
v 0.145833 0.825531 0.250000
v -0.104167 1.125531 -0.250000
v -0.104167 1.125531 -0.450000
v 0.095833 1.125531 -0.450000
v 0.095833 1.125531 -0.250000
v -0.104167 1.500531 -0.250000
v -0.104167 1.500531 -0.450000
v 0.095833 1.500531 -0.450000
v 0.095833 1.500531 -0.250000
v -0.104167 0.825531 -0.250000
v -0.104167 0.825531 -0.450000
v 0.095833 0.825531 -0.450000
v 0.095833 0.825531 -0.250000
v -0.104167 1.125531 -0.250000
v -0.104167 1.125531 -0.450000
v 0.095833 1.125531 -0.450000
v 0.095833 1.125531 -0.250000
v -0.104167 0.825531 0.450000
v -0.104167 0.825531 0.250000
v 0.095833 0.825531 0.250000
v 0.095833 0.825531 0.450000
v -0.104167 1.125531 0.450000
v -0.104167 1.125531 0.250000
v 0.095833 1.125531 0.250000
v 0.095833 1.125531 0.450000
v -0.104167 1.125531 0.450000
v -0.104167 1.125531 0.250000
v 0.095833 1.125531 0.250000
v 0.095833 1.125531 0.450000
v -0.104167 1.500531 0.450000
v -0.104167 1.500531 0.250000
v 0.095833 1.500531 0.250000
v 0.095833 1.500531 0.450000
v -0.154167 0.825531 0.250000
v -0.154167 0.825531 -0.250000
v 0.145833 0.825531 -0.250000
v 0.145833 0.825531 0.250000
v -0.154167 1.500531 0.250000
v -0.154167 1.500531 -0.250000
v 0.145833 1.500531 -0.250000
v 0.145833 1.500531 0.250000
v 0.245833 1.500531 -0.250000
v 0.245833 1.500531 0.250000
v -0.254167 1.500531 0.250000
v -0.254167 1.500531 -0.250000
v 0.245833 2.000531 -0.250000
v 0.245833 2.000531 0.250000
v -0.254167 2.000531 0.250000
v -0.254167 2.000531 -0.250000
vt 0.460938 0.179688
vt 0.460938 0.148438
vt 0.546875 0.148438
vt 0.765625 0.179688
vt 0.765625 0.156250
vt 0.648438 0.156250
vt 0.062500 0.179688
vt 0.062500 0.148438
vt 0.148438 0.148438
vt 0.648438 0.179688
vt 0.460938 0.023438
vt 0.546875 0.023438
vt 0.148438 0.023438
vt 0.375000 0.179688
vt 0.375000 0.148438
vt 0.921875 0.179688
vt 0.921875 0.156250
vt 0.804688 0.156250
vt 0.148438 0.179688
vt 0.234375 0.148438
vt 0.804688 0.179688
vt 0.375000 0.023438
vt 0.234375 0.023438
vt 0.375000 0.429688
vt 0.375000 0.296875
vt 0.460938 0.296875
vt 0.828125 0.429688
vt 0.828125 0.296875
vt 0.921875 0.296875
vt 0.148438 0.429688
vt 0.148438 0.296875
vt 0.234375 0.296875
vt 0.234375 0.226562
vt 0.234375 0.304688
vt 0.296875 0.304688
vt 0.968750 0.023438
vt 0.968750 0.132812
vt 0.882812 0.132812
vt 0.828125 0.179688
vt 0.234375 0.179688
vt 0.367188 0.210938
vt 0.367188 0.132812
vt 0.304688 0.132812
vt 0.296875 0.226562
vt 0.546875 0.179688
vt 0.742188 0.296875
vt 0.742188 0.179688
vt 0.062500 0.296875
vt 0.648438 0.296875
vt 0.304688 0.210938
vt 0.242188 0.132812
vt 0.062500 0.226562
vt 0.062500 0.304688
vt 0.000000 0.304688
vt 0.460938 0.429688
vt 0.546875 0.296875
vt 0.742188 0.429688
vt 0.062500 0.429688
vt 0.648438 0.429688
vt 0.000000 0.226562
vt 0.882812 0.023438
vt 0.796875 0.132812
vt 0.375000 0.648438
vt 0.375000 0.523438
vt 0.312500 0.523438
vt 0.992188 0.648438
vt 0.992188 0.523438
vt 0.929688 0.523438
vt 0.234375 0.648438
vt 0.234375 0.523438
vt 0.296875 0.523438
vt 0.929688 0.421875
vt 0.929688 0.296875
vt 0.992188 0.296875
vt 0.234375 0.367188
vt 0.296875 0.367188
vt 0.296875 0.648438
vt 0.296875 0.710938
vt 0.234375 0.710938
vt 0.312500 0.429688
vt 0.992188 0.429688
vt 0.929688 0.429688
vt 0.234375 0.429688
vt 0.296875 0.429688
vt 0.929688 0.203125
vt 0.992188 0.203125
vt 0.609375 0.523438
vt 0.609375 0.429688
vt 0.546875 0.429688
vt 0.812500 0.296875
vt 0.812500 0.203125
vt 0.750000 0.203125
vt 0.000000 0.523438
vt 0.000000 0.429688
vt 0.750000 0.523438
vt 0.750000 0.429688
vt 0.812500 0.429688
vt 0.000000 0.367188
vt 0.062500 0.367188
vt 0.609375 0.648438
vt 0.546875 0.523438
vt 0.812500 0.421875
vt 0.750000 0.296875
vt 0.000000 0.648438
vt 0.062500 0.523438
vt 0.750000 0.648438
vt 0.812500 0.523438
vt 0.062500 0.648438
vt 0.062500 0.710938
vt 0.000000 0.710938
vt 0.828125 0.648438
vt 0.921875 0.429688
vt 0.648438 0.648438
vt 0.726562 0.992188
vt 0.726562 0.882812
vt 0.554688 0.882812
vt 0.976562 0.882812
vt 0.976562 0.992188
vt 0.804688 0.992188
vt 0.546875 1.000000
vt 0.546875 0.828125
vt 0.375000 0.828125
vt 0.234375 0.828125
vt 0.234375 1.000000
vt 0.062500 1.000000
vt 0.234375 0.820312
vt 0.062500 0.820312
vt 0.781250 0.820312
vt 0.617188 0.820312
vt 0.617188 0.648438
vt 0.546875 0.648438
vt 0.546875 0.820312
vt 0.375000 0.820312
vt 0.796875 0.648438
vt 0.960938 0.648438
vt 0.960938 0.820312
vt 0.062500 0.023438
vt 0.242188 0.210938
vt 0.796875 0.023438
vt 0.312500 0.648438
vt 0.929688 0.648438
vt 0.992188 0.421875
vt 0.750000 0.421875
vt 0.812500 0.648438
vt 0.921875 0.648438
vt 0.742188 0.648438
vt 0.554688 0.992188
vt 0.804688 0.882812
vt 0.375000 1.000000
vt 0.062500 0.828125
vt 0.781250 0.648438
vt 0.796875 0.820312
vn -1.000000 0.000000 0.000000
vn 0.000000 0.000000 -1.000000
vn 1.000000 0.000000 0.000000
vn 0.000000 -0.000000 1.000000
vn 0.000000 -1.000000 -0.000000
vn 0.000000 1.000000 0.000000
g boneFootL
s 1
f 6/1/1 2/2/1 1/3/1
f 7/4/2 3/5/2 2/6/2
f 8/7/3 4/8/3 3/9/3
f 5/10/4 1/6/4 4/5/4
f 2/2/5 3/11/5 4/12/5
f 7/13/6 6/9/6 5/8/6
g boneFootR
f 14/14/1 10/15/1 9/2/1
f 15/16/2 11/17/2 10/18/2
f 16/19/3 12/9/3 11/20/3
f 13/21/4 9/18/4 12/17/4
f 10/15/5 11/22/5 12/11/5
f 15/23/6 14/20/6 13/9/6
g boneLegRU
f 22/24/1 18/25/1 17/26/1
f 23/27/2 19/28/2 18/29/2
f 24/30/3 20/31/3 19/32/3
f 21/27/4 17/28/4 20/29/4
f 18/33/5 19/34/5 20/35/5
f 23/36/6 22/37/6 21/38/6
g boneLegRD
f 30/25/1 26/14/1 25/1/1
f 31/28/2 27/39/2 26/16/2
f 32/31/3 28/19/3 27/40/3
f 29/28/4 25/39/4 28/16/4
f 26/41/5 27/42/5 28/43/5
f 31/44/6 30/35/6 29/34/6
g boneLegLD
f 38/26/1 34/1/1 33/45/1
f 39/46/2 35/47/2 34/10/2
f 40/48/3 36/7/3 35/19/3
f 37/49/4 33/10/4 36/47/4
f 34/50/5 35/43/5 36/51/5
f 39/52/6 38/53/6 37/54/6
g boneLegLU
f 46/55/1 42/26/1 41/56/1
f 47/57/2 43/46/2 42/49/2
f 48/58/3 44/48/3 43/31/3
f 45/59/4 41/49/4 44/46/4
f 42/53/5 43/52/5 44/60/5
f 47/61/6 46/38/6 45/62/6
g boneArmRU
f 54/63/1 50/64/1 49/65/1
f 55/66/2 51/67/2 50/68/2
f 56/69/3 52/70/3 51/71/3
f 53/72/4 49/73/4 52/74/4
f 50/75/5 51/76/5 52/35/5
f 55/77/6 54/78/6 53/79/6
g boneArmRD
f 62/64/1 58/24/1 57/80/1
f 63/67/2 59/81/2 58/82/2
f 64/70/3 60/83/3 59/84/3
f 61/73/4 57/85/4 60/86/4
f 58/75/5 59/83/5 60/84/5
f 63/76/6 62/75/6 61/34/6
g boneArmLD
f 70/87/1 66/88/1 65/89/1
f 71/90/2 67/91/2 66/92/2
f 72/93/3 68/94/3 67/58/3
f 69/95/4 65/96/4 68/97/4
f 66/98/5 67/94/5 68/58/5
f 71/99/6 70/98/6 69/54/6
g boneArmLU
f 78/100/1 74/87/1 73/101/1
f 79/102/2 75/90/2 74/103/2
f 80/104/3 76/93/3 75/105/3
f 77/106/4 73/95/4 76/107/4
f 74/98/5 75/99/5 76/53/5
f 79/108/6 78/109/6 77/110/6
g boneTorso
f 86/63/1 82/24/1 81/89/1
f 87/111/2 83/27/2 82/112/2
f 88/108/3 84/58/3 83/83/3
f 85/113/4 81/59/4 84/57/4
f 82/114/5 83/115/5 84/116/5
f 87/117/6 86/118/6 85/119/6
g boneHead
f 90/120/5 91/121/5 92/122/5
f 93/123/6 96/124/6 95/125/6
f 93/126/3 94/127/3 90/108/3
f 94/128/4 95/129/4 91/130/4
f 91/131/1 95/132/1 96/133/1
f 89/134/2 92/135/2 96/136/2
g boneFootL
f 5/45/1 6/1/1 1/3/1
f 6/10/2 7/4/2 2/6/2
f 7/19/3 8/7/3 3/9/3
f 8/4/4 5/10/4 4/5/4
f 1/3/5 2/2/5 4/12/5
f 8/137/6 7/13/6 5/8/6
g boneFootR
f 13/1/1 14/14/1 9/2/1
f 14/21/2 15/16/2 10/18/2
f 15/40/3 16/19/3 11/20/3
f 16/16/4 13/21/4 12/17/4
f 9/2/5 10/15/5 12/11/5
f 16/13/6 15/23/6 13/9/6
g boneLegRU
f 21/55/1 22/24/1 17/26/1
f 22/112/2 23/27/2 18/29/2
f 23/83/3 24/30/3 19/32/3
f 24/112/4 21/27/4 20/29/4
f 17/44/5 18/33/5 20/35/5
f 24/61/6 23/36/6 21/38/6
g boneLegRD
f 29/26/1 30/25/1 25/1/1
f 30/29/2 31/28/2 26/16/2
f 31/32/3 32/31/3 27/40/3
f 32/29/4 29/28/4 28/16/4
f 25/50/5 26/41/5 28/43/5
f 32/33/6 31/44/6 29/34/6
g boneLegLD
f 37/56/1 38/26/1 33/45/1
f 38/49/2 39/46/2 34/10/2
f 39/31/3 40/48/3 35/19/3
f 40/46/4 37/49/4 36/47/4
f 33/138/5 34/50/5 36/51/5
f 40/60/6 39/52/6 37/54/6
g boneLegLU
f 45/89/1 46/55/1 41/56/1
f 46/59/2 47/57/2 42/49/2
f 47/30/3 48/58/3 43/31/3
f 48/57/4 45/59/4 44/46/4
f 41/54/5 42/53/5 44/60/5
f 48/139/6 47/61/6 45/62/6
g boneArmRU
f 53/140/1 54/63/1 49/65/1
f 54/141/2 55/66/2 50/68/2
f 55/77/3 56/69/3 51/71/3
f 56/142/4 53/72/4 52/74/4
f 49/34/5 50/75/5 52/35/5
f 56/69/6 55/77/6 53/79/6
g boneArmRD
f 61/65/1 62/64/1 57/80/1
f 62/68/2 63/67/2 58/82/2
f 63/71/3 64/70/3 59/84/3
f 64/74/4 61/73/4 60/86/4
f 57/76/5 58/75/5 60/84/5
f 64/35/6 63/76/6 61/34/6
g boneArmLD
f 69/101/1 70/87/1 65/89/1
f 70/103/2 71/90/2 66/92/2
f 71/105/3 72/93/3 67/58/3
f 72/107/4 69/95/4 68/97/4
f 65/99/5 66/98/5 68/58/5
f 72/53/6 71/99/6 69/54/6
g boneArmLU
f 77/131/1 78/100/1 73/101/1
f 78/143/2 79/102/2 74/103/2
f 79/108/3 80/104/3 75/105/3
f 80/144/4 77/106/4 76/107/4
f 73/54/5 74/98/5 76/53/5
f 80/104/6 79/108/6 77/110/6
g boneTorso
f 85/131/1 86/63/1 81/89/1
f 86/145/2 87/111/2 82/112/2
f 87/69/3 88/108/3 83/83/3
f 88/146/4 85/113/4 84/57/4
f 81/147/5 82/114/5 84/116/5
f 88/148/6 87/117/6 85/119/6
g boneHead
f 89/149/5 90/120/5 92/122/5
f 94/150/6 93/123/6 95/125/6
f 89/69/3 93/126/3 90/108/3
f 90/151/4 94/128/4 91/130/4
f 92/63/1 91/131/1 96/133/1
f 93/152/2 89/134/2 96/136/2
