# Blender v2.76 (sub 0) OBJ File: 'sign.blend'
# www.blender.org
v 0.500000 0.333333 -0.050000
v 0.500000 0.766667 -0.050000
v -0.500000 0.333333 -0.050000
v -0.500000 0.766667 -0.050000
v 0.500000 0.333333 0.050000
v 0.500000 0.766667 0.050000
v -0.500000 0.333333 0.050000
v -0.500000 0.766667 0.050000
v 0.295000 0.333333 -0.050000
v 0.245000 0.333333 -0.050000
v 0.295000 0.333333 0.050000
v 0.245000 0.333333 0.050000
v 0.245000 0.333333 -0.025000
v 0.245000 0.333333 0.025000
v 0.295000 0.333333 -0.025000
v 0.295000 0.333333 0.025000
v 0.245000 0.000000 -0.025000
v 0.245000 0.000000 0.025000
v 0.295000 0.000000 -0.025000
v 0.295000 0.000000 0.025000
v -0.245000 0.333333 -0.050000
v -0.295000 0.333333 -0.050000
v -0.245000 0.333333 0.050000
v -0.295000 0.333333 0.050000
v -0.295000 0.333333 -0.025000
v -0.295000 0.333333 0.025000
v -0.245000 0.333333 -0.025000
v -0.245000 0.333333 0.025000
v -0.295000 0.000000 -0.025000
v -0.295000 0.000000 0.025000
v -0.245000 0.000000 -0.025000
v -0.245000 0.000000 0.025000
vt 0.875000 0.718750
vt 1.000000 1.000000
vt 0.500000 0.937500
vt 0.000000 0.937500
vt 0.000000 1.000000
vt -0.000000 0.500000
vt 0.375000 0.250000
vt 0.500000 0.500000
vt 0.437500 0.781250
vt 0.500000 0.781250
vt 0.062500 0.500000
vt 0.062500 0.750000
vt 0.218750 0.781250
vt 0.187500 0.781250
vt 0.343750 0.781250
vt 0.312500 0.781250
vt 0.312500 0.625000
vt 0.750000 0.156250
vt 0.750000 0.218750
vt 0.687500 0.218750
vt 0.593750 0.500000
vt 0.593750 -0.000000
vt 0.656250 0.000000
vt 0.343750 0.625000
vt 0.406250 0.781250
vt 0.406250 0.625000
vt 0.375000 0.625000
vt 0.218750 0.625000
vt 0.687500 0.250000
vt 0.687500 0.312500
vt 0.750000 0.312500
vt 0.187500 0.625000
vt 0.125000 0.781250
vt 0.125000 0.625000
vt 0.156250 0.625000
vt 0.625000 0.562500
vt 0.625000 0.625000
vt 0.500000 0.625000
vt 0.875000 0.625000
vt 1.000000 0.562500
vt 1.000000 0.625000
vt 0.500000 1.000000
vt 1.000000 0.718750
vt 0.500000 0.718750
vt 0.406250 0.250000
vt 0.500000 0.250000
vt -0.000000 0.250000
vt 0.437500 0.500000
vt 0.000000 0.750000
vt 0.687500 0.156250
vt 0.656250 0.500000
vt 0.375000 0.781250
vt 0.750000 0.250000
vt 0.156250 0.781250
vt 0.500000 0.562500
vt 0.875000 0.562500
vn 0.000000 -0.000000 -1.000000
vn 0.000000 1.000000 0.000000
vn -0.000000 -0.000000 1.000000
vn 1.000000 0.000000 -0.000000
vn -1.000000 0.000000 0.000000
vn 0.000000 -1.000000 -0.000000
s off
f 9/1/1 10/1/1 2/2/1
f 2/3/2 4/4/2 8/5/2
f 8/6/3 12/7/3 6/8/3
f 2/9/4 6/10/4 5/8/4
f 3/6/5 7/11/5 8/12/5
f 21/13/6 27/14/6 25/13/6
f 28/14/6 23/14/6 24/14/6
f 16/15/6 11/15/6 12/15/6
f 9/15/6 15/15/6 13/16/6
f 13/16/5 17/17/5 18/17/5
f 19/18/6 20/19/6 18/20/6
f 14/21/3 18/22/3 20/23/3
f 16/15/4 20/24/4 19/24/4
f 15/25/1 19/26/1 17/27/1
f 25/13/5 29/28/5 30/28/5
f 31/29/6 32/30/6 30/31/6
f 26/21/3 30/22/3 32/23/3
f 28/14/4 32/32/4 31/32/4
f 27/33/1 31/34/1 29/35/1
f 11/36/6 9/37/6 1/38/6
f 21/39/6 10/37/6 12/36/6
f 7/40/6 3/41/6 22/39/6
f 4/42/1 2/2/1 10/1/1
f 1/43/1 9/1/1 2/2/1
f 10/1/1 3/44/1 4/42/1
f 6/42/2 2/3/2 8/5/2
f 11/45/3 5/46/3 6/8/3
f 6/8/3 12/7/3 11/45/3
f 7/47/3 12/7/3 8/6/3
f 1/48/4 2/9/4 5/8/4
f 4/49/5 3/6/5 8/12/5
f 22/13/6 21/13/6 25/13/6
f 26/13/6 28/14/6 24/14/6
f 14/16/6 16/15/6 12/15/6
f 10/15/6 9/15/6 13/16/6
f 14/16/5 13/16/5 18/17/5
f 17/50/6 19/18/6 18/20/6
f 16/51/3 14/21/3 20/23/3
f 15/15/4 16/15/4 19/24/4
f 13/52/1 15/25/1 17/27/1
f 26/13/5 25/13/5 30/28/5
f 29/53/6 31/29/6 30/31/6
f 28/51/3 26/21/3 32/23/3
f 27/14/4 28/14/4 31/32/4
f 25/54/1 27/33/1 29/35/1
f 5/55/6 11/36/6 1/38/6
f 23/56/6 21/39/6 12/36/6
f 24/56/6 7/40/6 22/39/6
