# Blender v2.78 (sub 0) OBJ File: 'human_all_animations.blend'
# www.blender.org
v -0.162917 -0.001344 0.256250
v -0.162917 -0.001344 -0.006250
v 0.204583 -0.001344 -0.006250
v 0.204583 -0.001344 0.256250
v -0.162917 0.077406 0.256250
v -0.162917 0.077406 -0.006250
v 0.204583 0.077406 -0.006250
v 0.204583 0.077406 0.256250
v -0.162917 -0.001344 0.006250
v -0.162917 -0.001344 -0.256250
v 0.204583 -0.001344 -0.256250
v 0.204583 -0.001344 0.006250
v -0.162917 0.077406 0.006250
v -0.162917 0.077406 -0.256250
v 0.204583 0.077406 -0.256250
v 0.204583 0.077406 0.006250
v -0.161667 0.441156 0.006250
v -0.161667 0.441156 -0.256250
v 0.153333 0.441156 -0.256250
v 0.153333 0.441156 0.006250
v -0.161667 0.834906 0.006250
v -0.161667 0.834906 -0.256250
v 0.153333 0.834906 -0.256250
v 0.153333 0.834906 0.006250
v -0.161667 0.066156 0.006250
v -0.161667 0.066156 -0.256250
v 0.153333 0.066156 -0.256250
v 0.153333 0.066156 0.006250
v -0.161667 0.459906 0.006250
v -0.161667 0.459906 -0.256250
v 0.153333 0.459906 -0.256250
v 0.153333 0.459906 0.006250
v -0.161667 0.066156 0.256250
v -0.161667 0.066156 -0.006250
v 0.153333 0.066156 -0.006250
v 0.153333 0.066156 0.256250
v -0.161667 0.459906 0.256250
v -0.161667 0.459906 -0.006250
v 0.153333 0.459906 -0.006250
v 0.153333 0.459906 0.256250
v -0.161667 0.441156 0.256250
v -0.161667 0.441156 -0.006250
v 0.153333 0.441156 -0.006250
v 0.153333 0.441156 0.256250
v -0.161667 0.834906 0.256250
v -0.161667 0.834906 -0.006250
v 0.153333 0.834906 -0.006250
v 0.153333 0.834906 0.256250
v -0.109167 1.116156 -0.245000
v -0.109167 1.116156 -0.455000
v 0.100833 1.116156 -0.455000
v 0.100833 1.116156 -0.245000
v -0.109167 1.509906 -0.245000
v -0.109167 1.509906 -0.455000
v 0.100833 1.509906 -0.455000
v 0.100833 1.509906 -0.245000
v -0.109167 0.818031 -0.245000
v -0.109167 0.818031 -0.455000
v 0.100833 0.818031 -0.455000
v 0.100833 0.818031 -0.245000
v -0.109167 1.133031 -0.245000
v -0.109167 1.133031 -0.455000
v 0.100833 1.133031 -0.455000
v 0.100833 1.133031 -0.245000
v -0.109167 0.818031 0.455000
v -0.109167 0.818031 0.245000
v 0.100833 0.818031 0.245000
v 0.100833 0.818031 0.455000
v -0.109167 1.133031 0.455000
v -0.109167 1.133031 0.245000
v 0.100833 1.133031 0.245000
v 0.100833 1.133031 0.455000
v -0.109167 1.116156 0.455000
v -0.109167 1.116156 0.245000
v 0.100833 1.116156 0.245000
v 0.100833 1.116156 0.455000
v -0.109167 1.509906 0.455000
v -0.109167 1.509906 0.245000
v 0.100833 1.509906 0.245000
v 0.100833 1.509906 0.455000
v -0.168030 0.801569 0.261820
v -0.168030 0.801569 -0.261820
v 0.159696 0.801569 -0.261820
v 0.159696 0.801569 0.261820
v -0.168030 1.524493 0.261820
v -0.168030 1.524493 -0.261820
v 0.159696 1.524493 -0.261820
v 0.159696 1.524493 0.261820
v 0.258333 1.488031 -0.267750
v 0.258333 1.488031 0.267750
v -0.266667 1.488031 0.267750
v -0.266667 1.488031 -0.267750
v 0.258333 2.013031 -0.267750
v 0.258333 2.013031 0.267750
v -0.266667 2.013031 0.267750
v -0.266667 2.013031 -0.267750
vt 0.6484 0.1797
vt 0.7656 0.1562
vt 0.7656 0.1797
vt 0.8047 0.1797
vt 0.9219 0.1562
vt 0.9219 0.1797
vt 0.3047 0.2109
vt 0.2422 0.1328
vt 0.2422 0.2109
vt 0.6484 0.2969
vt 0.7422 0.1797
vt 0.7422 0.2969
vt 0.3750 0.1484
vt 0.4609 0.0234
vt 0.4609 0.1484
vt 0.9219 0.1797
vt 0.8047 0.1562
vt 0.8047 0.1797
vt 0.4609 0.1797
vt 0.5469 0.1484
vt 0.5469 0.1797
vt 0.3750 0.1797
vt 0.4609 0.1797
vt 0.2344 0.0234
vt 0.1484 0.1484
vt 0.1484 0.0234
vt 0.7266 0.9922
vt 0.5547 0.8828
vt 0.5547 0.9922
vt 0.3750 0.2969
vt 0.4609 0.1797
vt 0.4609 0.2969
vt 0.1484 0.0234
vt 0.0625 0.1484
vt 0.0625 0.0234
vt 0.4609 0.4297
vt 0.5469 0.2969
vt 0.5469 0.4297
vt 0.8281 0.2969
vt 0.9219 0.1797
vt 0.9219 0.2969
vt 0.2344 0.2969
vt 0.1484 0.1797
vt 0.2344 0.1797
vt 0.8281 0.2969
vt 0.9219 0.1797
vt 0.9219 0.2969
vt 0.2969 0.3672
vt 0.2344 0.3047
vt 0.2969 0.3047
vt 0.7656 0.1797
vt 0.6484 0.1562
vt 0.6484 0.1797
vt 0.3125 0.5234
vt 0.3750 0.4297
vt 0.3125 0.4297
vt 0.1484 0.1797
vt 0.2344 0.1484
vt 0.2344 0.1797
vt 0.0625 0.2969
vt 0.1484 0.1797
vt 0.1484 0.2969
vt 0.9297 0.4219
vt 0.9922 0.2969
vt 0.9922 0.4219
vt 0.7422 0.2969
vt 0.6484 0.1797
vt 0.6484 0.2969
vt 0.4609 0.1484
vt 0.5469 0.0234
vt 0.7422 0.4297
vt 0.6484 0.2969
vt 0.6484 0.4297
vt 0.2344 0.5234
vt 0.2969 0.4297
vt 0.2969 0.5234
vt 0.6484 0.4297
vt 0.7422 0.2969
vt 0.7422 0.4297
vt 0.3672 0.2109
vt 0.3047 0.1328
vt 0.3047 0.2109
vt 0.0625 0.3672
vt 0.0000 0.3047
vt 0.0625 0.3047
vt 0.4609 0.2969
vt 0.5469 0.1797
vt 0.5469 0.2969
vt 0.8125 0.4219
vt 0.7500 0.2969
vt 0.7500 0.4219
vt 0.1484 0.4297
vt 0.2344 0.2969
vt 0.2344 0.4297
vt 0.0000 0.3672
vt 0.0625 0.4297
vt 0.0625 0.3672
vt 0.0625 0.2266
vt 0.0000 0.3047
vt 0.0000 0.2266
vt 0.9688 0.0234
vt 0.8828 0.1328
vt 0.8828 0.0234
vt 0.9922 0.5234
vt 0.9297 0.4297
vt 0.9297 0.5234
vt 0.7969 0.6484
vt 0.9609 0.8203
vt 0.7969 0.8203
vt 0.2969 0.6484
vt 0.2344 0.7109
vt 0.2344 0.6484
vt 0.9297 0.2969
vt 0.9922 0.2031
vt 0.9922 0.2969
vt 0.2969 0.2266
vt 0.2344 0.3047
vt 0.2344 0.2266
vt 0.9922 0.6484
vt 0.9297 0.5234
vt 0.9297 0.6484
vt 0.5469 0.6484
vt 0.3750 0.8203
vt 0.3750 0.6484
vt 0.6094 0.5234
vt 0.5469 0.4297
vt 0.5469 0.5234
vt 0.2969 0.5234
vt 0.0625 0.3047
vt 0.0000 0.2266
vt 0.0000 0.3047
vt 0.0625 0.1797
vt 0.1484 0.1484
vt 0.1484 0.1797
vt 0.2344 0.3672
vt 0.2969 0.3047
vt 0.2344 0.3047
vt 0.5469 0.6484
vt 0.6094 0.5234
vt 0.5469 0.5234
vt 0.8281 0.4297
vt 0.9219 0.2969
vt 0.9219 0.4297
vt 0.0000 0.6484
vt 0.0625 0.5234
vt 0.0625 0.6484
vt 0.8281 0.4297
vt 0.9219 0.2969
vt 0.9219 0.4297
vt 0.2344 0.3672
vt 0.2969 0.4297
vt 0.2969 0.3672
vt 0.0000 0.3672
vt 0.0625 0.3047
vt 0.0000 0.3047
vt 0.6484 0.6484
vt 0.7422 0.4297
vt 0.7422 0.6484
vt 0.8125 0.2969
vt 0.7500 0.2031
vt 0.7500 0.2969
vt 0.2344 0.8203
vt 0.0625 0.6484
vt 0.2344 0.6484
vt 0.7500 0.5234
vt 0.8125 0.4297
vt 0.8125 0.5234
vt 0.8828 0.0234
vt 0.7969 0.1328
vt 0.7969 0.0234
vt 0.7500 0.6484
vt 0.8125 0.5234
vt 0.8125 0.6484
vt 0.4609 0.4297
vt 0.3750 0.2969
vt 0.4609 0.2969
vt 0.3750 0.6484
vt 0.5469 0.4297
vt 0.5469 0.6484
vt 0.0625 0.4297
vt 0.1484 0.2969
vt 0.1484 0.4297
vt 0.7812 0.8203
vt 0.6172 0.6484
vt 0.7812 0.6484
vt 0.9766 0.8828
vt 0.8047 0.9922
vt 0.8047 0.8828
vt 0.2344 0.2266
vt 0.2969 0.3047
vt 0.2969 0.2266
vt 0.0000 0.5234
vt 0.0625 0.4297
vt 0.0625 0.5234
vt 0.5469 1.0000
vt 0.3750 0.8281
vt 0.3750 1.0000
vt 0.0000 0.7109
vt 0.2344 0.8281
vt 0.0625 1.0000
vt 0.0625 0.8281
vt 0.3125 0.6484
vt 0.3750 0.5234
vt 0.3125 0.5234
vt 0.8281 0.6484
vt 0.9219 0.4297
vt 0.9219 0.6484
vt 0.0625 0.6484
vt 0.2344 0.4297
vt 0.2344 0.6484
vt 0.6484 0.1562
vt 0.8047 0.1562
vt 0.3047 0.1328
vt 0.6484 0.1797
vt 0.3750 0.0234
vt 0.9219 0.1562
vt 0.2344 0.1484
vt 0.7266 0.8828
vt 0.3750 0.1797
vt 0.1484 0.1484
vt 0.4609 0.2969
vt 0.8281 0.1797
vt 0.1484 0.2969
vt 0.8281 0.1797
vt 0.2344 0.3672
vt 0.7656 0.1562
vt 0.3750 0.5234
vt 0.1484 0.1484
vt 0.0625 0.1797
vt 0.9297 0.2969
vt 0.7422 0.1797
vt 0.4609 0.0234
vt 0.7422 0.2969
vt 0.2344 0.4297
vt 0.6484 0.2969
vt 0.3672 0.1328
vt 0.0000 0.3672
vt 0.4609 0.1797
vt 0.8125 0.2969
vt 0.1484 0.2969
vt 0.0000 0.4297
vt 0.0625 0.3047
vt 0.9688 0.1328
vt 0.9922 0.4297
vt 0.9609 0.6484
vt 0.2969 0.7109
vt 0.9297 0.2031
vt 0.2969 0.3047
vt 0.9922 0.5234
vt 0.5469 0.8203
vt 0.6094 0.4297
vt 0.2344 0.5234
vt 0.0625 0.2266
vt 0.0625 0.1484
vt 0.2969 0.3672
vt 0.6094 0.6484
vt 0.8281 0.2969
vt 0.0000 0.5234
vt 0.8281 0.2969
vt 0.2344 0.4297
vt 0.0625 0.3672
vt 0.6484 0.4297
vt 0.8125 0.2031
vt 0.0625 0.8203
vt 0.7500 0.4297
vt 0.8828 0.1328
vt 0.7500 0.5234
vt 0.3750 0.4297
vt 0.3750 0.4297
vt 0.0625 0.2969
vt 0.6172 0.8203
vt 0.9766 0.9922
vt 0.2344 0.3047
vt 0.0000 0.4297
vt 0.5469 0.8281
vt 0.0625 0.7109
vt 0.2344 1.0000
vt 0.3750 0.6484
vt 0.8281 0.4297
vt 0.0625 0.4297
vn 0.0000 0.0000 1.0000
vn 0.0000 -1.0000 -0.0000
vn 0.0000 0.0000 -1.0000
vn -1.0000 -0.0000 0.0000
vn 0.0000 1.0000 0.0000
vn 1.0000 -0.0000 0.0000
g boneFootL
s 1
f 5/1/1 4/2/1 8/3/1
g boneFootR
f 13/4/1 12/5/1 16/6/1
g boneLegLD
f 34/7/2 36/8/2 33/9/2
f 37/10/1 36/11/1 40/12/1
g boneFootR
f 10/13/2 12/14/2 9/15/2
f 15/16/3 10/17/3 14/18/3
g boneFootL
f 6/19/4 1/20/4 5/21/4
g boneFootR
f 14/22/4 9/15/4 13/23/4
f 15/24/5 13/25/5 16/26/5
g boneTorso
f 82/27/2 84/28/2 81/29/2
g boneLegRD
f 30/30/4 25/31/4 29/32/4
g boneFootL
f 7/33/5 5/34/5 8/35/5
g boneLegLU
f 46/36/4 41/37/4 45/38/4
g boneLegRD
f 31/39/3 26/40/3 30/41/3
f 31/42/6 28/43/6 27/44/6
f 29/45/1 28/46/1 32/47/1
g boneArmRD
f 63/48/5 61/49/5 64/50/5
g boneFootL
f 7/51/3 2/52/3 6/53/3
g boneArmRD
f 61/54/4 58/55/4 57/56/4
g boneFootR
f 16/57/6 11/58/6 15/59/6
g boneLegLD
f 40/60/6 35/61/6 39/62/6
g boneArmRU
f 53/63/1 52/64/1 56/65/1
g boneLegLD
f 39/66/3 34/67/3 38/68/3
g boneFootL
f 2/69/2 4/70/2 1/20/2
g boneLegLU
f 47/71/3 42/72/3 46/73/3
g boneArmRD
f 64/74/6 59/75/6 63/76/6
g boneLegLU
f 45/77/1 44/78/1 48/79/1
g boneLegRD
f 26/80/2 28/81/2 25/82/2
g boneArmLD
f 71/83/5 69/84/5 72/85/5
g boneLegLD
f 38/86/4 33/87/4 37/88/4
g boneArmLU
f 79/89/3 74/90/3 78/91/3
g boneLegRU
f 24/92/6 19/93/6 23/94/6
g boneArmLD
f 66/95/2 68/96/2 65/97/2
g boneLegLD
f 39/98/5 37/99/5 40/100/5
g boneLegRU
f 23/101/5 21/102/5 24/103/5
g boneArmRD
f 63/104/3 58/105/3 62/106/3
g boneHead
f 89/107/3 96/108/3 93/109/3
g boneArmRU
f 55/110/5 53/111/5 56/112/5
g boneArmRD
f 61/113/1 60/114/1 64/115/1
g boneLegRD
f 31/116/5 29/117/5 32/118/5
g boneArmRU
f 55/119/3 50/120/3 54/121/3
g boneHead
f 91/122/4 96/123/4 92/124/4
g boneArmLD
f 70/125/4 65/126/4 69/127/4
g boneArmRU
f 56/112/6 51/128/6 55/110/6
g boneLegLU
f 42/129/2 44/130/2 41/131/2
g boneFootL
f 8/132/6 3/133/6 7/134/6
g boneArmRU
f 50/135/2 52/136/2 49/137/2
g boneArmLU
f 77/138/4 74/139/4 73/140/4
g boneLegRU
f 21/141/1 20/142/1 24/143/1
g boneArmLU
f 80/144/6 75/145/6 79/146/6
g boneLegRU
f 23/147/3 18/148/3 22/149/3
g boneArmRD
f 58/150/2 60/151/2 57/152/2
g boneArmLU
f 74/153/2 76/154/2 73/155/2
g boneTorso
f 85/156/1 84/157/1 88/158/1
g boneArmLD
f 71/159/3 66/160/3 70/161/3
g boneHead
f 93/162/6 90/163/6 89/164/6
g boneArmLD
f 69/165/1 68/166/1 72/167/1
g boneLegLU
f 47/168/5 45/169/5 48/170/5
g boneArmLU
f 77/171/1 76/172/1 80/173/1
g boneLegRU
f 21/174/4 18/175/4 17/176/4
g boneTorso
f 86/177/4 81/178/4 85/179/4
g boneLegLU
f 48/180/6 43/181/6 47/182/6
g boneHead
f 94/183/1 91/184/1 90/185/1
g boneTorso
f 87/186/5 85/187/5 88/188/5
g boneLegRU
f 18/189/2 20/190/2 17/191/2
g boneArmLD
f 72/192/6 67/193/6 71/194/6
g boneHead
f 90/195/2 92/196/2 89/197/2
g boneArmLU
f 79/146/5 77/198/5 80/144/5
g boneHead
f 93/199/5 95/200/5 94/201/5
g boneArmRU
f 53/202/4 50/203/4 49/204/4
g boneTorso
f 87/205/3 82/206/3 86/207/3
f 88/208/6 83/209/6 87/210/6
g boneFootL
f 5/1/1 1/211/1 4/2/1
g boneFootR
f 13/4/1 9/212/1 12/5/1
g boneLegLD
f 34/7/2 35/213/2 36/8/2
f 37/10/1 33/214/1 36/11/1
g boneFootR
f 10/13/2 11/215/2 12/14/2
f 15/16/3 11/216/3 10/17/3
g boneFootL
f 6/19/4 2/69/4 1/20/4
g boneFootR
f 14/22/4 10/13/4 9/15/4
f 15/24/5 14/217/5 13/25/5
g boneTorso
f 82/27/2 83/218/2 84/28/2
g boneLegRD
f 30/30/4 26/219/4 25/31/4
g boneFootL
f 7/33/5 6/220/5 5/34/5
g boneLegLU
f 46/36/4 42/221/4 41/37/4
g boneLegRD
f 31/39/3 27/222/3 26/40/3
f 31/42/6 32/223/6 28/43/6
f 29/45/1 25/224/1 28/46/1
g boneArmRD
f 63/48/5 62/225/5 61/49/5
g boneFootL
f 7/51/3 3/226/3 2/52/3
g boneArmRD
f 61/54/4 62/227/4 58/55/4
g boneFootR
f 16/57/6 12/228/6 11/58/6
g boneLegLD
f 40/60/6 36/229/6 35/61/6
g boneArmRU
f 53/63/1 49/230/1 52/64/1
g boneLegLD
f 39/66/3 35/231/3 34/67/3
g boneFootL
f 2/69/2 3/232/2 4/70/2
g boneLegLU
f 47/71/3 43/233/3 42/72/3
g boneArmRD
f 64/74/6 60/234/6 59/75/6
g boneLegLU
f 45/77/1 41/235/1 44/78/1
g boneLegRD
f 26/80/2 27/236/2 28/81/2
g boneArmLD
f 71/83/5 70/237/5 69/84/5
g boneLegLD
f 38/86/4 34/238/4 33/87/4
g boneArmLU
f 79/89/3 75/239/3 74/90/3
g boneLegRU
f 24/92/6 20/240/6 19/93/6
g boneArmLD
f 66/95/2 67/241/2 68/96/2
g boneLegLD
f 39/98/5 38/242/5 37/99/5
g boneLegRU
f 23/101/5 22/243/5 21/102/5
g boneArmRD
f 63/104/3 59/244/3 58/105/3
g boneHead
f 89/107/3 92/245/3 96/108/3
g boneArmRU
f 55/110/5 54/246/5 53/111/5
g boneArmRD
f 61/113/1 57/247/1 60/114/1
g boneLegRD
f 31/116/5 30/248/5 29/117/5
g boneArmRU
f 55/119/3 51/249/3 50/120/3
g boneHead
f 91/122/4 95/250/4 96/123/4
g boneArmLD
f 70/125/4 66/251/4 65/126/4
g boneArmRU
f 56/112/6 52/252/6 51/128/6
g boneLegLU
f 42/129/2 43/253/2 44/130/2
g boneFootL
f 8/132/6 4/254/6 3/133/6
g boneArmRU
f 50/135/2 51/255/2 52/136/2
g boneArmLU
f 77/138/4 78/256/4 74/139/4
g boneLegRU
f 21/141/1 17/257/1 20/142/1
g boneArmLU
f 80/144/6 76/258/6 75/145/6
g boneLegRU
f 23/147/3 19/259/3 18/148/3
g boneArmRD
f 58/150/2 59/260/2 60/151/2
g boneArmLU
f 74/153/2 75/261/2 76/154/2
g boneTorso
f 85/156/1 81/262/1 84/157/1
g boneArmLD
f 71/159/3 67/263/3 66/160/3
g boneHead
f 93/162/6 94/264/6 90/163/6
g boneArmLD
f 69/165/1 65/265/1 68/166/1
g boneLegLU
f 47/168/5 46/266/5 45/169/5
g boneArmLU
f 77/171/1 73/267/1 76/172/1
g boneLegRU
f 21/174/4 22/268/4 18/175/4
g boneTorso
f 86/177/4 82/269/4 81/178/4
g boneLegLU
f 48/180/6 44/270/6 43/181/6
g boneHead
f 94/183/1 95/271/1 91/184/1
g boneTorso
f 87/186/5 86/272/5 85/187/5
g boneLegRU
f 18/189/2 19/273/2 20/190/2
g boneArmLD
f 72/192/6 68/274/6 67/193/6
g boneHead
f 90/195/2 91/275/2 92/196/2
g boneArmLU
f 79/146/5 78/276/5 77/198/5
g boneHead
f 93/199/5 96/277/5 95/200/5
g boneArmRU
f 53/202/4 54/278/4 50/203/4
g boneTorso
f 87/205/3 83/279/3 82/206/3
f 88/208/6 84/280/6 83/209/6
